# xmcd
# 
# Track frame offsets:
#     150
#     15814
#     27763
#     43136
#     56423
#     73039
#     89240
#     96525
#     112205
#     123874
#     137986
#     150267
#     169593
#     195463
# 
# Disc length: 3004
# 
# Revision: 3
# Processed by: cddbd v1.5.2PL0 Copyright (c) Steve Scherf et al.
# Submitted via: fre:ac v1.0.31
# 
DISCID=ba0bba0e
DTITLE=M - Mister Mystère
DYEAR=2009
DGENRE=Rock  Français
TTITLE0=Mister mystère
TTITLE1=Phébus
TTITLE2=Est-ce que c'est ca
TTITLE3=Le roi des ombres
TTITLE4=Tanagra
TTITLE5=L'elixir
TTITLE6=Ca sonne faux
TTITLE7=Destroy
TTITLE8=Semaine
TTITLE9=Amssétou
TTITLE10=Tout sauf toi
TTITLE11=Hold-up
TTITLE12=Délivre
TTITLE13=track title 14
EXTD=
EXTT0=
EXTT1=
EXTT2=
EXTT3=
EXTT4=
EXTT5=
EXTT6=
EXTT7=
EXTT8=
EXTT9=
EXTT10=
EXTT11=
EXTT12=
EXTT13=
PLAYORDER=
